Coordinates
version=1
nRows=10
nColumns=33
inDegrees=yes

Units are S.I. units (second, meters, Newtons, ...)
Angles are in degrees.

endheader
time	ground_thorax_rot_x	ground_thorax_rot_y	ground_thorax_rot_z	ground_thorax_tx	ground_thorax_ty	ground_thorax_tz	clav_prot_r	clav_elev_r	scapula_abduction_r	scapula_elevation_r	scapula_upward_rot_r	scapula_winging_r	shoulder_elv_r	plane_of_elev_r	axial_rot_r	elbow_flexion_r	pro_sup_r	wrist_flex_r	wrist_dev_r	clav_prot_l	clav_elev_l	scapula_abduction_l	scapula_elevation_l	scapula_upward_rot_l	scapula_winging_l	shoulder_elv_l	plane_of_elev_l	axial_rot_l	elbow_flexion_l	pro_sup_l	wrist_flex_l	wrist_dev_l
      0.55000000	      1.46077369	     -0.69122354	    -12.43345817	     -0.04312152	      1.04927754	     -0.00117119	    -12.84248117	     -8.21097113	    -12.32654792	     -2.29454801	      6.95327417	      0.47132579	     49.22333810	    -45.03786617	     55.86666662	     58.93295832	      2.45087769	     15.10810503	      6.35011535	     -6.31546589	     -5.53401849	      4.91292266	     -3.41402003	     -4.82916604	     -1.36525275	     51.55590284	    -49.93391201	    -36.99252086	     59.87798449	      4.91497879	      2.96696508	    -23.79675637
      0.56000000	      1.45222504	     -0.79785935	    -12.51564578	     -0.04337070	      1.04915130	     -0.00107010	    -12.71879947	     -8.20161013	    -12.09675602	     -2.29244368	      6.98882443	      0.43809421	     49.29801848	    -44.93328222	     56.03480826	     58.96249621	      2.54371399	     15.20283641	      6.39622868	     -6.16863591	     -5.50273670	      4.66268098	     -3.45341317	     -4.84836671	     -1.30030483	     51.62067541	    -49.91089267	    -37.24294393	     59.85317541	      5.01961502	      2.98881266	    -23.87296081
      0.57000000	      1.45316939	     -0.79925483	    -12.51342749	     -0.04321484	      1.04918749	     -0.00105374	    -12.71849814	     -8.20031091	    -12.09588587	     -2.29142131	      6.98963602	      0.43779467	     49.29999741	    -44.93381666	     56.03537455	     58.96174600	      2.54438264	     15.20347082	      6.39635144	     -6.16813158	     -5.50169405	      4.66055749	     -3.45295756	     -4.84433027	     -1.30211300	     51.62427633	    -49.90878418	    -37.24186953	     59.85362345	      5.01998180	      2.98815648	    -23.87372443
      0.58000000	      1.45868112	     -0.81774658	    -12.51165565	     -0.04314569	      1.04913387	     -0.00091769	    -12.71553837	     -8.18204959	    -12.08987885	     -2.27841953	      6.99802266	      0.42920147	     49.32707280	    -44.94595800	     56.04362746	     58.94880983	      2.55254430	     15.21182864	      6.39829270	     -6.16405913	     -5.49199669	      4.64414305	     -3.45017755	     -4.81352666	     -1.29087812	     51.66172719	    -49.89613593	    -37.23499369	     59.85358930	      5.02559825	      2.98106683	    -23.88314230
      0.59000000	      1.59228651	     -0.77370831	    -12.07005054	     -0.04328033	      1.04882845	     -0.00096316	    -12.63283930	     -7.91787934	    -11.97104349	     -2.05283661	      7.04681219	      0.29868084	     49.79715499	    -45.25330298	     56.64688672	     59.12873483	      3.27427273	     16.36201723	      6.56348916	     -6.06144176	     -5.41329612	      4.50067954	     -3.55144543	     -4.88493243	     -1.24899259	     51.79699933	    -50.14293309	    -37.78823787	     59.78423887	      5.77046374	      2.43789364	    -24.84763517
      0.60000000	      1.59232235	     -0.77687602	    -12.06820640	     -0.04305188	      1.04888097	     -0.00095748	    -12.63261030	     -7.91750401	    -11.97021859	     -2.05337570	      7.04825541	      0.29966099	     49.79858083	    -45.25204304	     56.64633497	     59.12822647	      3.27472185	     16.36244611	      6.56331224	     -6.06078401	     -5.41323778	      4.49827158	     -3.55007608	     -4.88183449	     -1.25031208	     51.79950471	    -50.13970458	    -37.78728999	     59.78513795	      5.77073736	      2.43712436	    -24.84833889
      0.61000000	      1.58035414	     -0.87329841	    -12.29035482	     -0.04302318	      1.04871537	     -0.00089721	    -12.60228228	     -7.97244101	    -11.87406455	     -2.12328013	      7.11437662	      0.30112496	     49.86541820	    -45.10413076	     56.68455896	     59.18910690	      3.37607089	     16.51676940	      6.57003676	     -6.01624371	     -5.44112900	      4.40433465	     -3.51756744	     -4.85930175	     -1.22747223	     51.85232274	    -50.04946581	    -37.82830144	     59.86575003	      5.87100157	      2.32557825	    -24.99999983
      0.62000000	      1.57965598	     -0.87445225	    -12.28489227	     -0.04274585	      1.04883776	     -0.00089189	    -12.60165679	     -7.97225235	    -11.87281562	     -2.12361086	      7.11668266	      0.30173388	     49.86682628	    -45.10197110	     56.68412424	     59.19084837	      3.37658316	     16.51814446	      6.56991195	     -6.01534527	     -5.44123503	      4.40212614	     -3.51565107	     -4.85446847	     -1.23041760	     51.85554481	    -50.04520596	    -37.82650141	     59.86756797	      5.87126772	      2.32429307	    -24.99999983
      0.63000000	      1.70219264	     -0.95500376	    -12.22315674	     -0.04249804	      1.04878759	     -0.00088315	    -12.72931570	     -8.06061326	    -11.97744781	     -2.27429004	      7.31524313	      0.30929551	     50.68823893	    -45.22544553	     57.53131433	     59.53283454	      4.79603441	     18.44695672	      6.74154444	     -6.11234027	     -5.63019134	      4.57169927	     -3.37456997	     -4.94371445	     -1.33199526	     52.04519393	    -50.19190302	    -38.03188168	     60.08055349	      7.29074960	      0.69936886	    -24.99999983
      0.64000000	      1.64926620	     -0.95808009	    -12.40100233	     -0.04249789	      1.04867799	     -0.00087935	    -12.68471479	     -8.06110707	    -11.88852393	     -2.28056541	      7.33922563	      0.29554718	     50.69276419	    -45.09352045	     57.55808648	     59.74217067	      4.85052037	     18.49362112	      6.72385510	     -6.06627698	     -5.61214766	      4.46466877	     -3.36268661	     -4.86402238	     -1.28976118	     52.15330948	    -50.11653327	    -38.09227294	     60.27320041	      7.37605833	      0.64754662	    -24.99999983
